<?xml version="1.0" encoding="utf-8"?>
<!-- Generator: Adobe Illustrator 22.1.0, SVG Export Plug-In . SVG Version: 6.00 Build 0)  -->
<svg version="1.1" id="Layer_1" xmlns="http://www.w3.org/2000/svg" xmlns:xlink="http://www.w3.org/1999/xlink" x="0px" y="0px"
	 width="557px" height="557px" viewBox="0 0 557 557" style="enable-background:new 0 0 557 557;" xml:space="preserve">
<style type="text/css">
	.st0{
	
    		fill-opacity: 0;
			stroke: #F96922;
		stroke-width: 10px;
				fill:#F96922;
				    transition: all 0.5s;

	}
</style>
<path id="XMLID_33_" class="st0" d="M479.2,72.3H354.7C347.5,42.8,321,22,290.6,22H82.9C46.5,22,17,51.5,17,87.9v330.2
	c0,36.4,29.5,65.9,65.9,65.9h117.5c4.8,29,29.8,50.3,59.2,50.3h219.5c33.1-0.1,60-26.9,60-60.1V132.4
	C539.2,99.2,512.3,72.4,479.2,72.3z M39.5,418.1V87.9c0-24,19.4-43.4,43.4-43.4h207.8c24,0,43.4,19.5,43.4,43.4v330.2
	c0,24-19.4,43.4-43.4,43.4H82.9C58.9,461.4,39.5,442,39.5,418.1z M516.7,474.2c0,20.7-16.8,37.6-37.5,37.6H259.6
	c-17,0-31.8-11.4-36.2-27.8h67.3c36.4,0,65.9-29.5,65.9-65.9V94.8h122.6c20.7,0,37.5,16.9,37.5,37.6V474.2z"/>
<path id="XMLID_15_" class="st0" d="M175.8,96.1c-51.1,0-92.5,41.3-92.5,92.4c0,51.1,41.4,92.5,92.4,92.5
	c51.1,0,92.5-41.4,92.5-92.4C268.1,137.5,226.8,96.1,175.8,96.1z M236.9,231.8c-3-2.7-6.3-5.2-9.6-7.5c2.6-8.8,4.2-17.8,4.7-27h18.2
	C248.7,209.7,244.2,221.6,236.9,231.8z M101.5,197.3h18.2c0.6,9.1,2.1,18,4.7,26.8c-3.4,2.3-6.7,4.8-9.7,7.5
	C107.4,221.4,102.9,209.6,101.5,197.3z M114.6,145.5c3.1,2.7,6.3,5.2,9.7,7.5c-2.6,8.7-4.1,17.7-4.7,26.8h-18.2
	C102.9,167.4,107.4,155.6,114.6,145.5z M167.1,150.5c-7.2-0.8-14.3-2.7-21-5.6c4.8-10.2,12-19.1,21-26V150.5z M167.1,168.1v11.7
	h-29.9c0.4-6.2,1.4-12.3,3-18.3C148.7,165,157.8,167.2,167.1,168.1z M167.1,197.3v11.7c-9.3,0.9-18.3,3.1-26.9,6.7
	c-1.5-6-2.5-12.2-3-18.3H167.1z M167.1,226.5V258c-9-6.8-16.2-15.7-21-26C152.8,229.2,159.8,227.3,167.1,226.5z M184.6,226.5
	c7.2,0.9,14.3,2.7,20.9,5.6c-4.8,10.2-12,19-20.9,25.9V226.5z M184.6,209v-11.7h29.9c-0.4,6.2-1.4,12.4-3,18.5
	C202.9,212.1,193.8,209.8,184.6,209z M184.6,179.8v-11.7c9.3-0.9,18.3-3.2,26.9-6.8c1.5,6.1,2.5,12.2,3,18.5L184.6,179.8z
	 M184.6,150.5V119c9,6.8,16.1,15.7,20.9,25.8C198.8,147.7,191.8,149.6,184.6,150.5z M213.2,123.6c4.3,2.5,8.3,5.4,12,8.6
	c-1.5,1.3-3,2.6-4.6,3.8C218.5,131.7,216,127.5,213.2,123.6z M130.9,136.2c-1.6-1.2-3.1-2.5-4.7-3.8c3.8-3.3,7.9-6.3,12.2-8.8
	C135.6,127.6,133,131.8,130.9,136.2z M130.9,240.8c2.2,4.4,4.7,8.6,7.6,12.6c-4.4-2.5-8.5-5.5-12.2-8.8
	C127.7,243.3,129.2,242,130.9,240.8L130.9,240.8z M220.7,241c1.6,1.2,3.1,2.4,4.6,3.8c-3.7,3.3-7.7,6.2-12,8.6
	C216,249.5,218.5,245.3,220.7,241z M232,179.8c-0.6-9.1-2.1-18.2-4.7-27c3.4-2.3,6.6-4.8,9.6-7.5c7.2,10.2,11.8,22.1,13.2,34.5H232z
	"/>
<path id="XMLID_14_" class="st0" d="M73.2,338.6c-6.2,0-11.2,5-11.2,11.2V381c0,6.2,5,11.2,11.2,11.2s11.2-5,11.2-11.2v-31.2
	C84.4,343.6,79.4,338.6,73.2,338.6z"/>
<path id="XMLID_13_" class="st0" d="M124.4,338.6c-6.2,0-11.2,5-11.2,11.2V381c0,6.2,5,11.2,11.2,11.2c6.2,0,11.2-5,11.2-11.2v-31.2
	C135.7,343.6,130.6,338.6,124.4,338.6z"/>
<path id="XMLID_12_" class="st0" d="M176.9,338.6c-6.2,0-11.2,5-11.2,11.2V381c0,6.2,5,11.2,11.2,11.2c6.2,0,11.2-5,11.2-11.2v-31.2
	C188.1,343.6,183.1,338.6,176.9,338.6z"/>
<path id="XMLID_11_" class="st0" d="M228.1,338.6c-6.2,0-11.2,5-11.2,11.2V381c0,6.2,5,11.2,11.2,11.2c6.2,0,11.2-5,11.2-11.2v-31.2
	C239.4,343.6,234.3,338.6,228.1,338.6z"/>
<path id="XMLID_10_" class="st0" d="M279.3,338.6c-6.2,0-11.2,5-11.2,11.2V381c0,6.2,5,11.2,11.2,11.2c6.2,0,11.2-5,11.2-11.2v-31.2
	C290.6,343.6,285.5,338.6,279.3,338.6z"/>
<path id="XMLID_7_" class="st0" d="M462.2,145.7c-17.5,0-31.6,14.2-31.6,31.7c0,17.5,14.2,31.6,31.6,31.6
	c17.5,0,31.6-14.2,31.6-31.6C493.9,159.9,479.7,145.7,462.2,145.7z M462.2,191.5c-7.8,0-14.2-6.3-14.2-14.2
	c0-7.8,6.3-14.2,14.2-14.2c7.8,0,14.2,6.3,14.2,14.2C476.4,185.1,470.1,191.5,462.2,191.5z"/>
<path id="XMLID_4_" class="st0" d="M385.2,132.2h-15.6c-4.8,0-8.7,3.9-8.7,8.7v72.9c0,4.8,3.9,8.7,8.7,8.7h15.6
	c24.9,0,45.2-20.2,45.2-45.2C430.4,152.4,410.2,132.2,385.2,132.2z M385.2,205h-6.9v-55.4h6.9c15.3,0,27.7,12.4,27.7,27.7
	C412.9,192.6,400.5,205,385.2,205z"/>
<path id="XMLID_3_" class="st0" d="M474.7,244.6c-4.8,0-8.7,3.9-8.7,8.7v108.3c0,4.8,3.9,8.7,8.7,8.7c4.8,0,8.7-3.9,8.7-8.7V253.3
	C483.5,248.5,479.6,244.6,474.7,244.6z"/>
<path id="XMLID_2_" class="st0" d="M426.8,244.6c-4.8,0-8.7,3.9-8.7,8.7v124.9c0,4.8,3.9,8.7,8.7,8.7c4.8,0,8.7-3.9,8.7-8.7V253.3
	C435.6,248.5,431.7,244.6,426.8,244.6z"/>
<path id="XMLID_1_" class="st0" d="M380,244.6c-4.8,0-8.7,3.9-8.7,8.7v149.9c0,4.8,3.9,8.7,8.7,8.7c4.8,0,8.7-3.9,8.7-8.7V253.3
	C388.7,248.5,384.8,244.6,380,244.6z"/>
</svg>
