<?xml version="1.0" encoding="utf-8"?>
<!-- Generator: Adobe Illustrator 22.1.0, SVG Export Plug-In . SVG Version: 6.00 Build 0)  -->
<svg version="1.1" id="Layer_1" xmlns="http://www.w3.org/2000/svg" xmlns:xlink="http://www.w3.org/1999/xlink" x="0px" y="0px"
	 width="512px" height="512px" viewBox="0 0 512 512" style="enable-background:new 0 0 512 512;" xml:space="preserve">
<style type="text/css">
			.st0{
	
    		fill-opacity: 0;
			stroke: #F96922;
		stroke-width: 10px;
		fill:#F96922;
		    transition: all 0.5s;
	}
</style>
<path id="XMLID_1_" class="st0" d="M507.5,171.6L378.4,44.3c-5.9-5.8-15.3-5.8-21.1,0.1l-50,50.2c-14.9,0-87.6,0-102.4,0l-50-50.2
	c-5.8-5.8-15.3-5.9-21.1-0.1L4.5,171.6c-2.9,2.8-4.5,6.7-4.5,10.8c0,4,1.7,7.9,4.6,10.7l51.7,50v6.4c0,18.2,5.6,35.5,15.9,50
	C58,317,59,342.9,75.5,359.4c7.9,7.9,18.2,12.5,29.3,13.1c0.6,10.7,5,21.2,13.1,29.3c8.1,8.1,18.7,12.5,29.3,13.1
	c0.6,10.7,4.9,21.2,13.1,29.3c16,16,41.2,17.5,58.9,4.1l11,11c8.8,8.8,20.4,13.2,32,13.2c11.6,0,23.2-4.4,32-13.2
	c4.1-4.1,7.2-8.8,9.4-13.8c17.3,9.9,39.5,7.3,54.1-7.3c8.1-8.1,12.5-18.7,13.1-29.3c10.7-0.6,21.2-4.9,29.3-13.1
	c7.9-7.9,12.5-18.3,13.1-29.3c10.7-0.6,21.2-4.9,29.3-13.1c8.5-8.5,13.2-19.8,13.2-31.8c0-10.5-3.6-20.4-10.1-28.4
	c6.6-10.4,10.1-22.5,10.1-35.2v-14.9l51.7-50c2.9-2.8,4.6-6.7,4.6-10.7C512,178.3,510.4,174.4,507.5,171.6z M36.5,182.2l107.6-106
	L188,120c2.8,2.8,6.6,4.4,10.6,4.4h45.8l74.8,74.8c5.9,5.9,5.9,15.3,0,21.2c-5.8,5.8-15.4,5.8-21.2,0L268,190.5
	c-23.8-23.8-62.4-24.3-86.8-0.5l-31.6-31.6c-5.9-5.9-15.4-5.9-21.2,0c-5.9,5.9-5.9,15.4,0,21.2l31.6,31.6l-66.3,66.3
	c-4.8-8.5-7.4-18.1-7.4-28.1c0-12.7,1-18.1-4.6-23.5L36.5,182.2z M273,438.1c-5.9,5.9-15.6,5.9-21.5,0l-10.7-10.7l21.7-21.7
	c11.2,11.5,3.7,4.7,12.8,13.8C278.8,425.3,278,433.1,273,438.1z M336.5,417c-5.9,5.8-15.4,5.8-21.2,0c-26.8-26.8,2.7,2.8-23.6-24.4
	c-3.3-5.7-2.5-13.1,2.4-18.1c5.8-5.8,15.4-5.9,21.2,0l21.2,21.2C342.3,401.7,342.3,411.2,336.5,417z M378.9,374.6
	c-5.8,5.8-15.4,5.8-21.2,0l-42.4-42.4c-5.9-5.9-5.9-15.3,0-21.2c5.8-5.8,15.4-5.8,21.2,0l42.4,42.4
	C384.8,359.2,384.8,368.7,378.9,374.6z M421.3,332.2c-5.8,5.8-15.4,5.9-21.2,0L378.9,311c-5.9-5.9-5.9-15.4,0-21.2
	c5.8-5.8,15.4-5.8,21.2,0c5.1,5.1,15.9,15.9,21.2,21.2C427.2,316.8,427.2,326.3,421.3,332.2z M430.3,225.9
	c-2.9,2.8-4.6,6.7-4.6,10.8v21.2c0,4.4-0.8,8.7-2.3,12.7l-2.1-2.1c-17.5-17.5-46.1-17.5-63.6,0c-4.1,4.1-7.3,8.8-9.5,14
	c-17.2-9.8-39.5-7.4-54.1,7.2c-14.8,14.8-17,37.1-7.2,54.2c-6.5,2.8-13.1,8.1-14.2,9.3c-10.9,10.9-59.5,59.5-69.9,69.9
	c-5.9,5.8-15.4,5.8-21.2,0c-5.8-5.9-5.8-15.4,0-21.2c3.7-3.7,37.1-37.1,42.4-42.4c5.9-5.9,5.9-15.4,0-21.2c-5.9-5.9-15.4-5.9-21.2,0
	c-5.3,5.3-38.1,38.1-42.4,42.4c-5.8,5.9-15.4,5.9-21.2,0c-5.8-5.8-5.8-15.4,0-21.2l42.4-42.4c5.9-5.9,5.9-15.4,0-21.2
	c-5.9-5.9-15.4-5.9-21.2,0l-42.4,42.4c-5.9,5.9-15.4,5.9-21.2,0s-5.9-15.3,0-21.2c12.5-12.5,92.8-92.8,105.2-105.2
	c12.4-12.4,32.5-12.4,44.9,0l29.9,29.9c17.6,17.6,46.1,17.5,63.6,0c8.5-8.5,13.2-19.8,13.2-31.8s-4.7-23.3-13.2-31.8l-53.6-53.6
	h26.7c4,0,7.8-1.6,10.6-4.4l43.9-43.9l107.6,106L430.3,225.9z"/>
</svg>
